<svg xmlns="http://www.w3.org/2000/svg" version="1.0" viewBox="0 0 512 512">
  <path d="M240.6 38c-4.1 1.3-9.4 6.8-10.6 11-.6 2.2-1 36.9-1 91.7V229h-88.2c-54.9 0-89.6.4-91.8 1-4.5 1.2-9.7 6.5-11 11.1-1.4 4.6-1.3 217.1 0 221.9 1.2 4.5 6.5 9.7 11.1 11 4.7 1.4 409.1 1.4 413.8 0 4.6-1.3 9.9-6.5 11.1-11 1.4-4.8 1.4-409.2 0-414-1.2-4.5-6.5-9.7-11.1-11-4.3-1.3-218.2-1.2-222.3 0zm201.9 218v186.5h-373v-181l91-.5 91-.5 3.1-2.2c6.7-4.8 6.4.4 6.4-98.5 0-49.2.3-89.8.7-90.1.3-.4 41.2-.6 90.7-.5l90.1.3V256z"/>
  <path d="M344 125.2c-1.8 1.3-4.3 3.6-5.4 5.1-2.1 2.8-2.1 3.1-2.4 104.3L336 336H177.6l8.7-8.8c9.2-9.4 10.7-12 10.7-18.3 0-9.9-9.4-17.2-19.4-14.9-3.2.7-7.7 4.7-27.5 24.2-13 12.8-24.4 24.5-25.5 26.1-1.2 1.8-1.8 4.5-1.8 7.7s.6 5.9 1.8 7.7c1.1 1.6 12.5 13.3 25.5 26.1 19.8 19.5 24.3 23.5 27.5 24.2 10 2.3 19.4-5 19.4-14.9 0-6.3-1.5-8.9-10.7-18.3l-8.6-8.8 90.1-.2c89.2-.3 90.1-.3 92.8-2.4 1.5-1.1 3.7-3.3 4.8-4.8 2.1-2.7 2.1-3.2 2.1-115.1V133.1l-2.1-2.8c-3.5-4.8-8.2-7.3-13.4-7.3-3.2 0-5.7.7-8 2.2z"/>
</svg>